<svg xmlns="http://www.w3.org/2000/svg" viewBox="0 0 100 100">
  <defs>
    <linearGradient id="grad" x1="0%" y1="0%" x2="100%" y2="100%">
      <stop offset="0%" stop-color="#6366f1" />
      <stop offset="50%" stop-color="#a855f7" />
      <stop offset="100%" stop-color="#10b981" />
    </linearGradient>
  </defs>
  <rect width="100" height="100" rx="24" fill="url(#grad)" />
  <circle cx="50" cy="50" r="30" fill="#0b0d14" />
  <!-- Stylized brain / spark icon -->
  <path d="M42 36a10 10 0 0 1 16 0 12 12 0 0 1 12 14c0 6-5 10-10 14v4a2 2 0 0 1-2 2h-16a2 2 0 0 1-2-2v-4c-5-4-10-8-10-14a12 12 0 0 1 12-14z" stroke="#818cf8" stroke-width="4" fill="none" stroke-linecap="round" stroke-linejoin="round"/>
  <circle cx="50" cy="50" r="4" fill="#a855f7" />
  <path d="M44 76h12" stroke="#10b981" stroke-width="4" stroke-linecap="round" />
</svg>